<svg xmlns="http://www.w3.org/2000/svg" width="143.711" height="92.779" viewBox="0 0 143.711 92.779">
  <g id="Group_195" data-name="Group 195" transform="translate(0 0)">
    <circle id="Ellipse_1" data-name="Ellipse 1" cx="35.774" cy="35.774" r="35.774" transform="translate(16.331 3.776)" fill="#f2f2f2"/>
    <circle id="Ellipse_2" data-name="Ellipse 2" cx="6.774" cy="6.774" r="6.774" transform="translate(86.821 60.718)" fill="#f2f2f2"/>
    <path id="Path_25" data-name="Path 25" d="M401.729,416.449A34.52,34.52,0,0,1,367.556,386.3l.42-.053a34.046,34.046,0,0,0,67.555-8.534l.42-.053a34.489,34.489,0,0,1-34.222,38.792Z" transform="translate(-321.026 -330.751)" fill="#3f3d56"/>
    <path id="Path_26" data-name="Path 26" d="M504.275,550.47h-6.732a.953.953,0,0,1-.748-.36.933.933,0,0,1-.183-.793,18.314,18.314,0,0,0-.11-8.552.948.948,0,0,1,.413-1.032c2.329-1.443,4.865-1.4,7.754.138a.963.963,0,0,1,.5.693,29.967,29.967,0,0,1,.05,9.086A.951.951,0,0,1,504.275,550.47Z" transform="translate(-422.653 -457.691)" fill="#6c63ff"/>
    <path id="Path_27" data-name="Path 27" d="M359.25,377.618h-6.732a.953.953,0,0,1-.748-.36.933.933,0,0,1-.183-.793,18.308,18.308,0,0,0-.117-8.581.954.954,0,0,1,.37-1c3.462-2.49,6.188-2.417,8.1.215a.956.956,0,0,1,.168.4,29.96,29.96,0,0,1,.084,9.3A.951.951,0,0,1,359.25,377.618Z" transform="translate(-308.323 -320.825)" fill="#ccc"/>
    <path id="Path_28" data-name="Path 28" d="M508.046,560.917H505.73a.483.483,0,0,1,0-.966h2.316a.483.483,0,1,1,0,.966Z" transform="translate(-429.57 -474.457)" fill="#fff"/>
    <path id="Path_29" data-name="Path 29" d="M510.877,569.93H505.73a.483.483,0,0,1,0-.966h5.148a.483.483,0,0,1,0,.966Z" transform="translate(-429.57 -481.562)" fill="#fff"/>
    <path id="Path_30" data-name="Path 30" d="M368.046,388.917H365.73a.483.483,0,1,1,0-.966h2.316a.483.483,0,1,1,0,.966Z" transform="translate(-319.205 -338.866)" fill="#fff"/>
    <path id="Path_31" data-name="Path 31" d="M368.046,396.917H365.73a.483.483,0,0,1,0-.966h2.316a.483.483,0,1,1,0,.966Z" transform="translate(-319.205 -345.172)" fill="#fff"/>
    <path id="Path_32" data-name="Path 32" d="M368.046,404.917H365.73a.483.483,0,0,1,0-.966h2.316a.483.483,0,1,1,0,.966Z" transform="translate(-319.205 -351.479)" fill="#fff"/>
    <path id="Path_33" data-name="Path 33" d="M728.124,396.371H706.6a2.178,2.178,0,0,1-2.175-2.175V380.94a2.178,2.178,0,0,1,2.175-2.175h21.521a2.178,2.178,0,0,1,2.175,2.175V394.2A2.178,2.178,0,0,1,728.124,396.371Z" transform="translate(-586.588 -331.625)" fill="#e6e6e6"/>
    <path id="Path_34" data-name="Path 34" d="M725.722,401.021H714.264a2.04,2.04,0,0,1-2.037-2.037V388.867a2.04,2.04,0,0,1,2.037-2.037h18.5a2.04,2.04,0,0,1,2.037,2.037v3.079A9.085,9.085,0,0,1,725.722,401.021Z" transform="translate(-592.736 -337.982)" fill="#fff"/>
    <path id="Path_35" data-name="Path 35" d="M743.575,409.4h-14.8a.483.483,0,1,1,0-.966h14.805a.483.483,0,0,1,0,.966Z" transform="translate(-605.396 -355.016)" fill="#6c63ff"/>
    <path id="Path_36" data-name="Path 36" d="M731.086,418.415H728.77a.483.483,0,0,1,0-.966h2.316a.483.483,0,0,1,0,.966Z" transform="translate(-605.396 -362.12)" fill="#6c63ff"/>
    <path id="Path_37" data-name="Path 37" d="M735.187,427.43H728.77a.483.483,0,0,1,0-.966h6.418a.483.483,0,1,1,0,.966Z" transform="translate(-605.396 -369.226)" fill="#6c63ff"/>
    <circle id="Ellipse_5" data-name="Ellipse 5" cx="4.552" cy="4.552" r="4.552" transform="translate(112.537 42.324)" fill="#3f3d56"/>
    <path id="Path_38" data-name="Path 38" d="M457.431,178.243a11.872,11.872,0,1,1,23.3,4.59l-.415-.082a11.449,11.449,0,0,0-22.466-4.426Z" transform="translate(-391.876 -165.998)" fill="#3f3d56"/>
    <path id="Path_39" data-name="Path 39" d="M448.256,206.367l-6.726.279a.953.953,0,0,1-.762-.329.933.933,0,0,1-.215-.785,18.318,18.318,0,0,0-.439-8.457.946.946,0,0,1,.467-1.106c2.755-1.431,5.337-1.5,7.673-.216a.958.958,0,0,1,.481.648,29.966,29.966,0,0,1,.432,9.109.951.951,0,0,1-.91.858Z" transform="translate(-378.193 -186.631)" fill="#6c63ff"/>
    <path id="Path_40" data-name="Path 40" d="M456.358,224.911l-5.143.213a.483.483,0,0,1-.04-.965l5.143-.213a.483.483,0,0,1,.04.965Z" transform="translate(-386.579 -209.577)" fill="#fff"/>
    <path id="Path_41" data-name="Path 41" d="M456.027,216.918l-5.143.213a.483.483,0,1,1-.04-.965l5.143-.213a.483.483,0,1,1,.04.965Z" transform="translate(-386.318 -203.277)" fill="#fff"/>
    <path id="Path_42" data-name="Path 42" d="M598.44,173.675H576.92a2.178,2.178,0,0,1-2.175-2.175V158.245a2.178,2.178,0,0,1,2.175-2.175H598.44a2.178,2.178,0,0,1,2.175,2.175V171.5A2.178,2.178,0,0,1,598.44,173.675Z" transform="translate(-484.356 -156.069)" fill="#e6e6e6"/>
    <path id="Path_43" data-name="Path 43" d="M596.037,178.326H584.579a2.04,2.04,0,0,1-2.037-2.037V166.172a2.04,2.04,0,0,1,2.037-2.037h18.5a2.04,2.04,0,0,1,2.037,2.037v3.079A9.085,9.085,0,0,1,596.037,178.326Z" transform="translate(-490.503 -162.428)" fill="#fff"/>
    <path id="Path_44" data-name="Path 44" d="M613.89,186.707H599.085a.483.483,0,0,1,0-.966H613.89a.483.483,0,0,1,0,.966Z" transform="translate(-503.163 -179.46)" fill="#6c63ff"/>
    <path id="Path_45" data-name="Path 45" d="M601.4,195.721h-2.316a.483.483,0,1,1,0-.966H601.4a.483.483,0,1,1,0,.966Z" transform="translate(-503.163 -186.566)" fill="#6c63ff"/>
    <path id="Path_46" data-name="Path 46" d="M605.5,204.734h-6.418a.483.483,0,1,1,0-.966H605.5a.483.483,0,1,1,0,.966Z" transform="translate(-503.163 -193.671)" fill="#6c63ff"/>
    <circle id="Ellipse_6" data-name="Ellipse 6" cx="4.552" cy="4.552" r="4.552" transform="translate(82.81 18.959) rotate(-58.134)" fill="#3f3d56"/>
    <path id="Path_48" data-name="Path 48" d="M277.257,306.126a19.9,19.9,0,0,1,37.234-14.085l-.4.15a19.481,19.481,0,0,0-36.442,13.785Z" transform="translate(-248.822 -253.115)" fill="#3f3d56"/>
    <path id="Path_49" data-name="Path 49" d="M335.291,269.55h-6.732a.952.952,0,0,1-.748-.36.933.933,0,0,1-.183-.793,18.313,18.313,0,0,0-.105-8.533.945.945,0,0,1,.436-1.045,7.383,7.383,0,0,1,7.74.129.955.955,0,0,1,.485.685,29.967,29.967,0,0,1,.051,9.1.951.951,0,0,1-.944.82Z" transform="translate(-289.444 -236.255)" fill="#6c63ff"/>
    <path id="Path_50" data-name="Path 50" d="M339.046,278.917H336.73a.483.483,0,1,1,0-.966h2.316a.483.483,0,0,1,0,.966Z" transform="translate(-296.344 -252.151)" fill="#fff"/>
    <path id="Path_51" data-name="Path 51" d="M341.877,287.93H336.73a.483.483,0,1,1,0-.966h5.148a.483.483,0,0,1,0,.966Z" transform="translate(-296.344 -259.256)" fill="#fff"/>
    <path id="Path_52" data-name="Path 52" d="M171.44,339.675H149.92a2.178,2.178,0,0,1-2.175-2.175V324.245a2.178,2.178,0,0,1,2.175-2.175H171.44a2.178,2.178,0,0,1,2.175,2.175V337.5A2.178,2.178,0,0,1,171.44,339.675Z" transform="translate(-147.744 -286.93)" fill="#e6e6e6"/>
    <path id="Path_53" data-name="Path 53" d="M169.037,344.326H157.579a2.04,2.04,0,0,1-2.037-2.037V332.172a2.04,2.04,0,0,1,2.037-2.037h18.5a2.04,2.04,0,0,1,2.037,2.037v3.079A9.085,9.085,0,0,1,169.037,344.326Z" transform="translate(-153.891 -293.289)" fill="#fff"/>
    <path id="Path_54" data-name="Path 54" d="M186.89,352.707H172.085a.483.483,0,1,1,0-.966H186.89a.483.483,0,1,1,0,.966Z" transform="translate(-166.552 -310.321)" fill="#6c63ff"/>
    <path id="Path_55" data-name="Path 55" d="M174.4,361.72h-2.316a.483.483,0,1,1,0-.966H174.4a.483.483,0,0,1,0,.966Z" transform="translate(-166.551 -317.427)" fill="#6c63ff"/>
    <path id="Path_56" data-name="Path 56" d="M178.5,370.733h-6.418a.483.483,0,1,1,0-.966H178.5a.483.483,0,1,1,0,.966Z" transform="translate(-166.551 -324.532)" fill="#6c63ff"/>
    <circle id="Ellipse_7" data-name="Ellipse 7" cx="4.552" cy="4.552" r="4.552" transform="translate(22.057 53.675) rotate(-58.134)" fill="#3f3d56"/>
    <path id="Path_57" data-name="Path 57" d="M444.308,328.334h-6.732a.953.953,0,0,1-.748-.36.933.933,0,0,1-.183-.793,18.315,18.315,0,0,0-.1-8.518.95.95,0,0,1,.45-1.054c3.27-1.872,5.86-1.82,7.917.158a.94.94,0,0,1,.271.524,29.965,29.965,0,0,1,.072,9.223.951.951,0,0,1-.944.82Z" transform="translate(-375.387 -282.337)" fill="#ff6584"/>
    <path id="Path_58" data-name="Path 58" d="M450.046,339.917H447.73a.483.483,0,0,1,0-.966h2.316a.483.483,0,1,1,0,.966Z" transform="translate(-383.848 -300.238)" fill="#fff"/>
    <path id="Path_59" data-name="Path 59" d="M452.877,348.93H447.73a.483.483,0,1,1,0-.966h5.148a.483.483,0,0,1,0,.966Z" transform="translate(-383.847 -307.343)" fill="#fff"/>
  </g>
</svg>
