<svg xmlns="http://www.w3.org/2000/svg" width="20" height="20" viewBox="0 0 20 20">
  <g id="building-outline-alerted" transform="translate(-5.333 -0.675)">
    <path id="Path_362" data-name="Path 362" d="M10.667,10.667h1.29V11.9h-1.29Z" transform="translate(-2.753 -5.379)" fill="#cfcfd6"/>
    <path id="Path_363" data-name="Path 363" d="M16,10.667h1.29V11.9H16Z" transform="translate(-5.506 -5.379)" fill="#cfcfd6"/>
    <path id="Path_364" data-name="Path 364" d="M21.333,10.667h1.29V11.9h-1.29Z" transform="translate(-8.259 -5.379)" fill="#cfcfd6"/>
    <path id="Path_365" data-name="Path 365" d="M10.667,17.333h1.29v1.231h-1.29Z" transform="translate(-2.753 -8.969)" fill="#cfcfd6"/>
    <path id="Path_366" data-name="Path 366" d="M16,17.333h1.29v1.231H16Z" transform="translate(-5.506 -8.969)" fill="#cfcfd6"/>
    <path id="Path_367" data-name="Path 367" d="M21.333,17.333h1.29v1.231h-1.29Z" transform="translate(-8.259 -8.969)" fill="#cfcfd6"/>
    <path id="Path_368" data-name="Path 368" d="M10.667,24h1.29v1.231h-1.29Z" transform="translate(-2.753 -12.558)" fill="#cfcfd6"/>
    <path id="Path_369" data-name="Path 369" d="M16,24h1.29v1.231H16Z" transform="translate(-5.506 -12.558)" fill="#cfcfd6"/>
    <path id="Path_370" data-name="Path 370" d="M21.333,24h1.29v1.231h-1.29Z" transform="translate(-8.259 -12.558)" fill="#cfcfd6"/>
    <path id="Path_371" data-name="Path 371" d="M10.667,30.667h1.29V31.9h-1.29Z" transform="translate(-2.753 -16.147)" fill="#cfcfd6"/>
    <path id="Path_372" data-name="Path 372" d="M16,30.667h1.29V31.9H16Z" transform="translate(-5.506 -16.147)" fill="#cfcfd6"/>
    <path id="Path_373" data-name="Path 373" d="M21.333,30.667h1.29V31.9h-1.29Z" transform="translate(-8.259 -16.147)" fill="#cfcfd6"/>
    <path id="Path_374" data-name="Path 374" d="M30.667,24h1.29v1.231h-1.29Z" transform="translate(-13.076 -12.558)" fill="#cfcfd6"/>
    <path id="Path_375" data-name="Path 375" d="M36,24h1.29v1.231H36Z" transform="translate(-15.829 -12.558)" fill="#cfcfd6"/>
    <path id="Path_376" data-name="Path 376" d="M30.667,30.667h1.29V31.9h-1.29Z" transform="translate(-13.076 -16.147)" fill="#cfcfd6"/>
    <path id="Path_377" data-name="Path 377" d="M36,30.667h1.29V31.9H36Z" transform="translate(-15.829 -16.147)" fill="#cfcfd6"/>
    <path id="Path_378" data-name="Path 378" d="M15.655,21.234H13.72V19.387H8.559v1.846H6.624V5.3A.076.076,0,0,1,6.7,5.231h8.877a.076.076,0,0,1,.077.074v1.92l1.29-2.1A1.349,1.349,0,0,0,15.578,4H6.7A1.337,1.337,0,0,0,5.333,5.3v17.16H16.945V11.62a2.444,2.444,0,0,1-1.29-.455Z" transform="translate(0 -1.79)" fill="#cfcfd6"/>
    <path id="Path_379" data-name="Path 379" d="M35.828,20.533v9.6H30.667v1.231h6.451V20.533Z" transform="translate(-13.076 -10.691)" fill="#cfcfd6"/>
    <path id="Path_380" data-name="Path 380" d="M31.71,1.065,28.02,7.134a.757.757,0,0,0-.041.823.834.834,0,0,0,.751.408h7.387a.834.834,0,0,0,.751-.408.757.757,0,0,0-.041-.823l-3.69-6.069a.846.846,0,0,0-1.426,0Z" transform="translate(-11.636 0)" fill="#cfcfd6"/>
  </g>
</svg>
