<svg id="info-circle" xmlns="http://www.w3.org/2000/svg" width="20" height="20" viewBox="0 0 20 20">
  <g id="Group_197" data-name="Group 197">
    <path id="Path_391" data-name="Path 391" d="M10,18.75A8.75,8.75,0,1,1,18.75,10,8.75,8.75,0,0,1,10,18.75ZM10,20A10,10,0,1,0,0,10,10,10,0,0,0,10,20Z" fill="#cfcfd6"/>
    <path id="Path_392" data-name="Path 392" d="M22.538,14.36l-2.863.359-.1.475.563.1c.368.088.44.22.36.586l-.922,4.335c-.243,1.121.131,1.649,1.01,1.649a2.589,2.589,0,0,0,1.831-.747l.11-.52a1.385,1.385,0,0,1-.857.308c-.344,0-.469-.241-.38-.666Zm.087-2.61a1.25,1.25,0,1,1-1.25-1.25A1.25,1.25,0,0,1,22.625,11.75Z" transform="translate(-11.375 -6.125)" fill="#cfcfd6"/>
  </g>
</svg>
