<svg xmlns="http://www.w3.org/2000/svg" width="20" height="20" viewBox="0 0 20 20">
  <path id="face_5_FILL0_wght400_GRAD0_opsz48" d="M90,179.625a.513.513,0,1,1,.35-.15A.48.48,0,0,1,90,179.625Zm2,0a.513.513,0,1,1,.35-.15A.48.48,0,0,1,92,179.625Zm-4,0a.513.513,0,1,1,.35-.15A.48.48,0,0,1,88,179.625Zm7,1a.513.513,0,1,1,.35-.15A.48.48,0,0,1,95,180.625Zm-8,0a.513.513,0,1,1,.35-.15A.48.48,0,0,1,87,180.625Zm-2,0a.513.513,0,1,1,.35-.15A.48.48,0,0,1,85,180.625Zm4,0a.513.513,0,1,1,.35-.15A.48.48,0,0,1,89,180.625Zm2,0a.513.513,0,1,1,.35-.15A.48.48,0,0,1,91,180.625Zm2,0a.513.513,0,1,1,.35-.15A.48.48,0,0,1,93,180.625Zm-3,1a.513.513,0,1,1,.35-.15A.48.48,0,0,1,90,181.625Zm2,0a.513.513,0,1,1,.35-.15A.48.48,0,0,1,92,181.625Zm2,0a.513.513,0,1,1,.35-.15A.48.48,0,0,1,94,181.625Zm-6,0a.513.513,0,1,1,.35-.15A.48.48,0,0,1,88,181.625Zm-2,0a.513.513,0,1,1,.35-.15A.48.48,0,0,1,86,181.625Zm1,1a.513.513,0,1,1,.35-.15A.48.48,0,0,1,87,182.625Zm-2,0a.513.513,0,1,1,.35-.15A.48.48,0,0,1,85,182.625Zm4,0a.513.513,0,1,1,.35-.15A.48.48,0,0,1,89,182.625Zm2,0a.513.513,0,1,1,.35-.15A.48.48,0,0,1,91,182.625Zm2,0a.513.513,0,1,1,.35-.15A.48.48,0,0,1,93,182.625Zm2,0a.513.513,0,1,1,.35-.15A.48.48,0,0,1,95,182.625Zm-12,0a.513.513,0,1,1,.35-.15A.48.48,0,0,1,83,182.625Zm1-1a.513.513,0,1,1,.35-.15A.48.48,0,0,1,84,181.625Zm2-2a.513.513,0,1,1,.35-.15A.48.48,0,0,1,86,179.625Zm1-1a.513.513,0,1,1,.35-.15A.48.48,0,0,1,87,178.625Zm2,0a.513.513,0,1,1,.35-.15A.48.48,0,0,1,89,178.625Zm2,0a.513.513,0,1,1,.35-.15A.48.48,0,0,1,91,178.625Zm2,0a.513.513,0,1,1,.35-.15A.48.48,0,0,1,93,178.625Zm1,1a.513.513,0,1,1,.35-.15A.48.48,0,0,1,94,179.625Zm2,2a.513.513,0,1,1,.35-.15A.48.48,0,0,1,96,181.625Zm1,1a.513.513,0,1,1,.35-.15A.48.48,0,0,1,97,182.625Zm-10.156,5.8a1.29,1.29,0,0,1-.957-.393,1.319,1.319,0,0,1-.387-.962,1.29,1.29,0,0,1,.393-.957,1.319,1.319,0,0,1,.962-.387,1.29,1.29,0,0,1,.957.393,1.319,1.319,0,0,1,.387.962,1.29,1.29,0,0,1-.393.957A1.319,1.319,0,0,1,86.844,188.425Zm6.325,0a1.29,1.29,0,0,1-.957-.393,1.319,1.319,0,0,1-.388-.962,1.29,1.29,0,0,1,.393-.957,1.319,1.319,0,0,1,.963-.387,1.29,1.29,0,0,1,.957.393,1.319,1.319,0,0,1,.388.962,1.29,1.29,0,0,1-.393.957A1.319,1.319,0,0,1,93.169,188.425ZM90,196a9.676,9.676,0,0,1-3.875-.787,10.075,10.075,0,0,1-5.338-5.338,9.989,9.989,0,0,1,0-7.775,9.994,9.994,0,0,1,2.15-3.175,10.251,10.251,0,0,1,3.188-2.137,9.989,9.989,0,0,1,7.775,0,9.984,9.984,0,0,1,5.313,5.313,9.989,9.989,0,0,1,0,7.775,10.251,10.251,0,0,1-2.138,3.188,9.994,9.994,0,0,1-3.175,2.15A9.738,9.738,0,0,1,90,196Zm-.007-1.5a8.476,8.476,0,1,0-6.012-2.484A8.2,8.2,0,0,0,89.993,194.5Z" transform="translate(-80 -176)" fill="#cfcfd6"/>
</svg>
