<svg xmlns="http://www.w3.org/2000/svg" width="20" height="20" viewBox="0 0 20 20">
  <g id="user-profile" transform="translate(-3 -3)">
    <path id="Path_386" data-name="Path 386" d="M12.167,4.429A3.459,3.459,0,0,1,15.5,8a3.459,3.459,0,0,1-3.333,3.571A3.459,3.459,0,0,1,8.833,8a3.459,3.459,0,0,1,3.333-3.571m0-1.429A4.842,4.842,0,0,0,7.5,8a4.842,4.842,0,0,0,4.667,5,4.842,4.842,0,0,0,4.667-5A4.842,4.842,0,0,0,12.167,3Z" transform="translate(-2.5 0)" fill="#cfcfd6"/>
    <path id="Path_387" data-name="Path 387" d="M16.333,35.571H15V32a3.459,3.459,0,0,0-3.333-3.571h-4A3.459,3.459,0,0,0,4.333,32v3.571H3V32a4.842,4.842,0,0,1,4.667-5h4a4.842,4.842,0,0,1,4.667,5Z" transform="translate(0 -12.571)" fill="#cfcfd6"/>
    <path id="Path_388" data-name="Path 388" d="M33,6h6.667V7.429H33Z" transform="translate(-16.667 -1.571)" fill="#cfcfd6"/>
    <path id="Path_389" data-name="Path 389" d="M33,13.5h6.667v1.429H33Z" transform="translate(-16.667 -5.5)" fill="#cfcfd6"/>
    <path id="Path_390" data-name="Path 390" d="M33,21h4.667v1.429H33Z" transform="translate(-16.667 -9.429)" fill="#cfcfd6"/>
  </g>
</svg>
